<mxfile host="app.diagrams.net" modified="2024-01-11T07:25:21.193Z" agent="Mozilla/5.0 (Windows NT 10.0; Win64; x64) AppleWebKit/537.36 (KHTML, like Gecko) Chrome/120.0.0.0 Safari/537.36 Edg/120.0.0.0" version="22.1.18" etag="Iu8S0UjX66VD1E5-byN4" type="github">
  <diagram name="第 1 页" id="MnuuGYU2EcMvs0Qsljcl">
    <mxGraphModel>
      <root>
        <mxCell id="0" />
        <mxCell id="1" parent="0" />
      </root>
    </mxGraphModel>
  </diagram>
</mxfile>
